<svg width="20" height="20" fill="none" xmlns="http://www.w3.org/2000/svg"><path fill-rule="evenodd" clip-rule="evenodd" d="M10 0C7.2842 0 6.9442.0117 5.8775.06 2.2458.2267.2275 2.2417.0608 5.8767.0117 6.9442 0 7.2842 0 10c0 2.7158.0117 3.0567.06 4.1233.1667 3.6317 2.1817 5.65 5.8167 5.8167C6.9442 19.9883 7.2842 20 10 20c2.7158 0 3.0567-.0117 4.1233-.06 3.6284-.1667 5.6517-2.1817 5.8159-5.8167C19.9883 13.0567 20 12.7158 20 10c0-2.7158-.0117-3.0558-.06-4.1225-.1633-3.6283-2.1808-5.65-5.8158-5.8167C13.0567.0117 12.7158 0 10 0zm0 1.8025c2.67 0 2.9867.01 4.0417.0583 2.71.1234 3.9758 1.4092 4.0991 4.0992.0484 1.0542.0575 1.3708.0575 4.0408 0 2.6709-.01 2.9867-.0575 4.0409-.1241 2.6875-1.3866 3.9758-4.0991 4.0991-1.055.0484-1.37.0584-4.0417.0584-2.67 0-2.9867-.01-4.0408-.0584-2.7167-.1241-3.9759-1.4158-4.0992-4.1-.0483-1.0541-.0583-1.37-.0583-4.0408 0-2.67.0108-2.9858.0583-4.0408C1.9842 3.27 3.2467 1.9833 5.9592 1.86 7.0142 1.8125 7.33 1.8025 10 1.8025zM4.865 10c0-2.8358 2.2992-5.135 5.135-5.135S15.135 7.1642 15.135 10c0 2.8367-2.2992 5.1358-5.135 5.1358S4.865 12.8358 4.865 10zM10 13.3333c-1.8408 0-3.3333-1.4916-3.3333-3.3333 0-1.8408 1.4925-3.3333 3.3333-3.3333S13.3333 8.1592 13.3333 10c0 1.8417-1.4925 3.3333-3.3333 3.3333zm4.1375-8.6708c0-.6625.5375-1.2 1.2008-1.2.6625 0 1.1992.5375 1.1992 1.2s-.5367 1.2-1.1992 1.2c-.6633 0-1.2008-.5375-1.2008-1.2z" fill="#2C7566"/></svg>