<svg width="124" height="24" fill="none" xmlns="http://www.w3.org/2000/svg"><path fill-rule="evenodd" clip-rule="evenodd" d="M88.4277 4.5714c.9099 0 1.6131-.2153 2.1094-.646.4964-.4306.7446-.9772.7446-1.6397 0-.679-.2399-1.2298-.7197-1.6522C90.0822.2112 89.3707 0 88.4277 0c-.9431 0-1.6545.2112-2.1343.6335-.4798.4224-.7197.9731-.7197 1.6522 0 .6625.2482 1.2091.7445 1.6398.4963.4306 1.1995.646 2.1095.646zM9.9269 17.6273c-1.0754.7205-2.432 1.0808-4.07 1.0808-3.4414 0-5.3936-1.3996-5.8569-4.1988l3.7226-.8447c.2316 1.06.943 1.5901 2.1343 1.5901.8107 0 1.216-.2154 1.216-.646 0-.1491-.0537-.2692-.1613-.3603-.1075-.0911-.3433-.2029-.7073-.3354l-1.489-.5465-.4219-.1491c-.2978-.0994-.5336-.1863-.7073-.2609-.1737-.0745-.426-.1946-.757-.3602-.3308-.1657-.6038-.3437-.8189-.5342-.215-.1905-.4384-.4141-.67-.6708-.2317-.2567-.4054-.5549-.5212-.8944-.1158-.3396-.1737-.708-.1737-1.1056 0-1.2754.5046-2.3105 1.5138-3.1056 1.0092-.795 2.275-1.1925 3.797-1.1925 2.548 0 4.2686 1.1097 5.1621 3.3292L7.4204 9.4658c-.331-.6956-.8355-1.0434-1.5139-1.0434-.546 0-.819.207-.819.621 0 .1492.0662.2734.1986.3727.1323.0994.3557.1988.67.2982l1.4395.5963c2.6802.9275 4.0617 2.3188 4.1445 4.1739 0 1.3747-.5378 2.4223-1.6132 3.1428zm11.1891-.8074c-.7776 1.2588-1.9854 1.8882-3.6233 1.8882-3.0277 0-4.5416-1.8965-4.5416-5.6895V5.3665h5.1124v7.1552c0 1.4742.5129 2.2112 1.5386 2.2112 1.0093 0 1.5139-.737 1.5139-2.2112V5.3665h5.1124v13.0683H21.116v-1.6149zm12.4796 1.6149v-7.1553c0-1.4741.5046-2.2112 1.5138-2.2112 1.0258 0 1.5387.737 1.5387 2.2112v7.1553h5.1124v-7.6522c0-3.793-1.5139-5.6894-4.5416-5.6894-1.6379 0-2.8457.6294-3.6233 1.8882v-1.615h-5.1124v13.0684h5.1124zm15.3832-7.1553v7.1553h-5.1124V5.3665h5.1124v1.6149c.7776-1.2588 1.9853-1.8882 3.6233-1.8882 3.0277 0 4.5416 1.8964 4.5416 5.6894v7.6522h-5.1124v-7.1553c0-1.4741-.5129-2.2112-1.5387-2.2112-1.0092 0-1.5138.737-1.5138 2.2112zM64.9576 24l8.289-18.6335h-5.3358l-2.5313 6.6832-2.2584-6.6832h-5.5839l5.435 11.8012L59.9445 24h5.0131zm17.7408-6.3727c-1.0754.7205-2.4321 1.0808-4.07 1.0808-3.4414 0-5.3937-1.3996-5.8569-4.1988l3.7226-.8447c.2316 1.06.943 1.5901 2.1343 1.5901.8107 0 1.216-.2154 1.216-.646 0-.1491-.0538-.2692-.1613-.3603-.1075-.0911-.3433-.2029-.7073-.3354l-1.489-.5465-.4219-.1491c-.2978-.0994-.5336-.1863-.7073-.2609-.1737-.0745-.426-.1946-.7569-.3602-.3309-.1657-.6039-.3437-.819-.5342-.2151-.1905-.4385-.4141-.6701-.6708-.2316-.2567-.4053-.5549-.5211-.8944-.1159-.3396-.1738-.708-.1738-1.1056 0-1.2754.5047-2.3105 1.5139-3.1056 1.0092-.795 2.2749-1.1925 3.797-1.1925 2.548 0 4.2686 1.1097 5.162 3.3292l-3.6977 1.0434c-.3309-.6956-.8356-1.0434-1.5139-1.0434-.546 0-.819.207-.819.621 0 .1492.0662.2734.1986.3727.1323.0994.3557.1988.67.2982l1.4394.5963c2.6803.9275 4.0618 2.3188 4.1445 4.1739 0 1.3747-.5377 2.4223-1.6131 3.1428zm8.2855-12.2608v13.0683h-5.1124V5.3665h5.1124zm7.7394 13.3416c1.7377 0 2.9777-.6294 3.7227-1.8882v1.6149h5.112V.4721h-5.112v6.5341c-.745-1.2753-1.985-1.913-3.7227-1.913-1.7537 0-3.2138.6418-4.3802 1.9254-1.1665 1.2837-1.7497 2.911-1.7497 4.882 0 1.971.5832 3.5984 1.7497 4.882 1.1664 1.2837 2.6265 1.9255 4.3802 1.9255zm-.3598-4.7205c.4384.5466 1.0216.8199 1.7495.8199.728 0 1.311-.2733 1.75-.8199.438-.5466.657-1.2423.657-2.087 0-.8447-.219-1.5404-.657-2.087-.439-.5465-1.022-.8198-1.75-.8198-.7279 0-1.3152.2733-1.7619.8199-.4302.5465-.6453 1.2422-.6453 2.0869s.2192 1.5404.6577 2.087zm18.4485 4.7205c2.597 0 4.624-.7536 6.08-2.2609l-2.11-2.8323c-1.042.8447-2.217 1.2671-3.524 1.2671-.992 0-1.799-.2236-2.419-.6708-.621-.4472-.931-.8779-.931-1.2919h9.604c.083-.2982.124-.6874.124-1.1677 0-2.0539-.674-3.677-2.022-4.8696-1.349-1.1926-3.073-1.7888-5.175-1.7888-2.25 0-4.028.6708-5.335 2.0124-1.307 1.3416-1.961 2.9565-1.961 4.8447 0 1.9379.691 3.5487 2.072 4.8323 1.382 1.2837 3.247 1.9255 5.597 1.9255zm-2.11-9.5528c-.496.323-.761.7909-.794 1.4037h5.112c-.033-.5963-.297-1.06-.794-1.3913-.496-.3313-1.083-.4969-1.762-.4969-.678 0-1.266.1615-1.762.4845z" fill="#fff"/></svg>