<svg width="170" height="33" fill="none" xmlns="http://www.w3.org/2000/svg"><path fill-rule="evenodd" clip-rule="evenodd" d="M121.588 6.2857c1.251 0 2.218-.296 2.901-.8882.682-.5921 1.023-1.3437 1.023-2.2546 0-.9338-.33-1.691-.989-2.2718C123.863.2904 122.885 0 121.588 0c-1.297 0-2.275.2904-2.935.8711-.659.5808-.989 1.338-.989 2.2718 0 .911.341 1.6625 1.024 2.2546.682.5922 1.649.8882 2.9.8882zM13.6495 24.2376c-1.4787.9907-3.3441 1.486-5.5963 1.486-4.7318 0-7.4162-1.9244-8.0532-5.7733l5.1186-1.1615c.3185 1.4576 1.2967 2.1864 2.9346 2.1864 1.1147 0 1.672-.2961 1.672-.8882 0-.205-.0738-.3701-.2217-.4954-.1479-.1252-.472-.279-.9725-.4612l-2.0475-.7515-.58-.205c-.4096-.1366-.7337-.2562-.9726-.3587-.2389-.1025-.5858-.2676-1.0408-.4953-.455-.2278-.8303-.4726-1.126-.7345-.2958-.2619-.603-.5694-.9214-.9224-.3185-.353-.5574-.7629-.7166-1.2298-.1593-.4668-.2389-.9736-.2389-1.5202 0-1.7536.6939-3.177 2.0816-4.2701 1.3877-1.0932 3.128-1.6398 5.221-1.6398 3.5033 0 5.8692 1.5259 7.0977 4.5776l-5.0845 1.4348c-.455-.9565-1.1488-1.4348-2.0815-1.4348-.7507 0-1.1261.2847-1.1261.8541 0 .205.091.3758.273.5124.182.1367.489.2733.9213.4099l1.9792.8199c3.6854 1.2754 5.5849 3.1884 5.6987 5.7391 0 1.8903-.7394 3.3308-2.2181 4.3215zm15.385-1.1103c-1.0692 1.7309-2.7299 2.5963-4.9821 2.5963-4.1631 0-6.2446-2.6077-6.2446-7.823V7.3789h7.0295v9.8385c0 2.0269.7052 3.0404 2.1156 3.0404 1.3877 0 2.0816-1.0135 2.0816-3.0404V7.3789h7.0295v17.9689h-7.0295v-2.2205zm17.1594 2.2205v-9.8385c0-2.0269.6939-3.0404 2.0816-3.0404 1.4104 0 2.1156 1.0135 2.1156 3.0404v9.8385h7.0295V14.8261c0-5.2153-2.0815-7.823-6.2446-7.823-2.2522 0-3.9129.8654-4.9821 2.5963V7.3789h-7.0295v17.9689h7.0295zm21.1519-9.8385v9.8385h-7.0295V7.3788h7.0295v2.2206c1.0692-1.7309 2.7299-2.5963 4.9821-2.5963 4.1631 0 6.2446 2.6077 6.2446 7.823v10.5217H71.543v-9.8385c0-2.0269-.7052-3.0404-2.1156-3.0404-1.3878 0-2.0816 1.0135-2.0816 3.0404zM89.3167 33L100.714 7.3789h-7.3366l-3.4806 9.1894-3.1053-9.1894h-7.6779l7.4732 16.2267L82.4237 33h6.893zm24.3933-8.7624c-1.478.9907-3.344 1.486-5.596 1.486-4.732 0-7.416-1.9244-8.053-5.7733l5.118-1.1615c.319 1.4576 1.297 2.1864 2.935 2.1864 1.115 0 1.672-.2961 1.672-.8882 0-.205-.074-.3701-.222-.4954-.148-.1252-.472-.279-.972-.4612l-2.048-.7515-.58-.205c-.409-.1366-.733-.2562-.972-.3587-.239-.1025-.586-.2676-1.041-.4953-.455-.2278-.83-.4726-1.126-.7345-.296-.2619-.603-.5694-.922-.9224-.318-.353-.557-.7629-.716-1.2298-.159-.4668-.239-.9736-.239-1.5202 0-1.7536.694-3.177 2.082-4.2701 1.387-1.0932 3.128-1.6398 5.221-1.6398 3.503 0 5.869 1.5259 7.097 4.5776l-5.084 1.4348c-.455-.9565-1.149-1.4348-2.082-1.4348-.75 0-1.126.2847-1.126.8541 0 .205.091.3758.273.5124.182.1367.489.2733.922.4099l1.979.8199c3.685 1.2754 5.585 3.1884 5.698 5.7391 0 1.8903-.739 3.3308-2.218 4.3215zm11.393-16.8587v17.9689h-7.03V7.3788h7.03zm10.642 18.3447c2.388 0 4.094-.8654 5.118-2.5963v2.2205h7.03V.6491h-7.03v8.9844c-1.024-1.7536-2.73-2.6304-5.118-2.6304-2.412 0-4.419.8825-6.023 2.6475-1.604 1.765-2.406 4.0026-2.406 6.7128 0 2.7101.802 4.9477 2.406 6.7127 1.604 1.765 3.611 2.6475 6.023 2.6475zm-.495-6.4907c.603.7516 1.405 1.1273 2.406 1.1273 1 0 1.802-.3757 2.405-1.1273.603-.7515.905-1.7081.905-2.8695 0-1.1615-.302-2.1181-.905-2.8696-.603-.7516-1.405-1.1273-2.405-1.1273-1.001 0-1.809.3757-2.423 1.1273-.592.7515-.888 1.7081-.888 2.8696 0 1.1614.302 2.118.905 2.8695zm25.366 6.4907c3.572 0 6.358-1.0362 8.36-3.1087l-2.9-3.8944c-1.433 1.1615-3.049 1.7422-4.846 1.7422-1.365 0-2.474-.3074-3.327-.9223-.853-.6149-1.28-1.2071-1.28-1.7764h13.206c.114-.41.171-.9452.171-1.6056 0-2.824-.927-5.0559-2.781-6.6957-1.854-1.6397-4.226-2.4596-7.115-2.4596-3.094 0-5.539.9224-7.337 2.767-1.797 1.8448-2.695 4.0653-2.695 6.6616 0 2.6646.949 4.8794 2.849 6.6444 1.9 1.765 4.465 2.6475 7.695 2.6475zm-2.901-13.1351c-.682.4441-1.046 1.0875-1.092 1.9301h7.03c-.046-.8198-.41-1.4575-1.092-1.913-.682-.4555-1.49-.6832-2.423-.6832s-1.74.222-2.423.6661z" fill="#2C7566"/></svg>