<svg width="20" height="20" fill="none" xmlns="http://www.w3.org/2000/svg"><path d="M10 0C4.4775 0 0 4.4767 0 10c0 4.2367 2.6358 7.855 6.3558 9.3117-.0875-.7909-.1666-2.0042.035-2.8675.1817-.7809 1.1725-4.9709 1.1725-4.9709s-.2991-.5991-.2991-1.485c0-1.39.8058-2.4283 1.8091-2.4283.8525 0 1.265.6408 1.265 1.4083 0 .8575-.5458 2.14-.8283 3.3292-.2358.995.4992 1.8075 1.4808 1.8075 1.7775 0 3.1434-1.8742 3.1434-4.5792 0-2.3941-1.72-4.0683-4.1767-4.0683-2.845 0-4.515 2.1342-4.515 4.3392 0 .8591.3308 1.7816.7442 2.2816.0816.0992.0933.1867.0691.2875l-.2775 1.1334c-.0441.1833-.145.2225-.335.1341-1.2491-.5816-2.03-2.4075-2.03-3.8741 0-3.1542 2.2917-6.0517 6.6075-6.0517 3.4692 0 6.165 2.4725 6.165 5.7758 0 3.4467-2.1725 6.22-5.1891 6.22-1.0134 0-1.9659-.5258-2.2917-1.1483l-.6233 2.3775c-.2259.8692-.835 1.9583-1.2434 2.6217A10.025 10.025 0 0010 20c5.5225 0 10-4.4775 10-10 0-5.5233-4.4775-10-10-10z" fill="#2C7566"/></svg>